<?xml version="1.0" encoding="utf-8"?>
<!-- Generator: Adobe Illustrator 27.9.0, SVG Export Plug-In . SVG Version: 6.00 Build 0)  -->
<svg version="1.1" id="Lager_1" xmlns="http://www.w3.org/2000/svg" xmlns:xlink="http://www.w3.org/1999/xlink" x="0px" y="0px"
	 viewBox="0 0 232.4 233.6" style="enable-background:new 0 0 232.4 233.6;" xml:space="preserve">
<style type="text/css">
	.st0{fill:#FFC107;stroke:#000000;stroke-width:5.000000e-02;stroke-linecap:round;stroke-linejoin:round;stroke-miterlimit:10;}
	.st1{fill:#FFFFFF;stroke:#FFFFFF;stroke-width:0.75;stroke-linecap:round;stroke-linejoin:round;stroke-miterlimit:10;}
	.st2{fill:#FFFFFF;}
	.st3{fill:#F7CD6F;stroke:#F7CD6F;stroke-width:5.000000e-02;stroke-linecap:round;stroke-linejoin:round;stroke-miterlimit:10;}
	.st4{fill:#F7CD6F;stroke:#F7CD6F;stroke-width:0.75;stroke-linecap:round;stroke-linejoin:round;stroke-miterlimit:10;}
	.st5{stroke:#000000;stroke-width:0.75;stroke-linecap:round;stroke-linejoin:round;stroke-miterlimit:10;}
	.st6{fill:none;stroke:#000000;stroke-width:2;stroke-linecap:round;stroke-linejoin:round;stroke-miterlimit:10;}
	.st7{fill:#F7CD6F;stroke:#000000;stroke-width:2;stroke-linecap:round;stroke-linejoin:round;stroke-miterlimit:10;}
	.st8{fill:#FFFFFF;stroke:#000000;stroke-width:2;stroke-miterlimit:10;}
</style>
<g id="Lager_2_00000148658052774479990580000011039780371233298085_">
	<polygon class="st0" points="54.2,189.1 53,187.9 52,186.6 51.7,185.2 51.7,183.8 52,182.2 53.1,181 99.9,134.1 101,132.9 
		101.4,131.4 101.4,129.7 101.4,109.1 130.3,109.1 130.7,131.5 131.1,132.5 131.8,134 133.3,135.4 179,181.4 179.8,182.4 
		180.2,183.1 180.4,184.9 180.2,186.5 178.2,189.1 168.2,196.9 157.4,202.6 144,207.8 133.2,210.5 123.2,211.8 112,212.1 102,211.1 
		93.4,209.6 87.4,207.9 82,205.8 76.6,203.5 70.8,200.6 64.6,196.9 57.7,192 	"/>
</g>
<g id="Lager_4">
	<polygon class="st1" points="101.6,108.9 130.9,108.9 130.9,87.9 133.5,87.5 135.8,81.3 97.1,81.3 98.9,87 101.2,87 	"/>
	<polyline class="st2" points="116.2,227.7 93.6,225.3 65.4,215.2 48.2,204.2 34,190.7 22.9,176 14.8,160.4 9.2,144.5 7.7,135.6 
		6.2,119.5 6.7,106.9 9.3,91.4 13.1,79.2 20.9,62.7 32.3,46.5 44.9,33.9 61.8,22 75.1,15.6 90.7,10.6 109.9,7.8 128.3,8.3 
		149.4,12.8 168.2,20.7 184.4,31.3 199,45.2 209,58.5 217.3,74.2 223.8,94.6 226.1,113.5 225.7,128.6 222.4,146.6 215.7,164.7 
		208.2,178 195.5,193.8 177.9,208.7 165.3,216.1 150.5,222.2 123.4,227.4 122.8,217.4 134.3,216 151.8,211.1 169.2,202.8 184.2,191 
		195.9,178.1 206.2,161.3 212.9,143.3 216.1,121.1 214.4,98.8 207.2,76.1 196.8,58.4 183.8,44 167.3,31.7 144.3,21.6 121.9,17.8 
		99.2,19.1 80.7,24.1 68.8,29.6 51.8,41.2 38.1,55.2 29.9,67 21.3,86 17.6,100.6 16.2,118.3 18.5,139.1 25.9,160.6 35.9,177.2 
		48.6,191.3 63.3,202.5 76.7,209.5 93.4,215 112,217.6 116.2,227.7 	"/>
	<polyline class="st1" points="113.1,227.6 126.5,227.2 125.4,217.1 110,217.7 	"/>
	<path class="st1" d="M184.8,260.5"/>
</g>
<g id="Lager_3">
	<polyline class="st3" points="65.7,168.8 73.6,173.2 83.8,171.2 90.3,164.7 91.4,154.7 87.4,146.7 65.7,168.8 	"/>
	<polyline class="st4" points="169.6,195.5 163.2,194.3 156.9,185.7 157.5,177 164.9,169.8 167.6,169.1 180.4,182.8 180.4,187.3 
		169.6,195.5 	"/>
	<polygon class="st5" points="71.6,194.9 71.2,190.3 75.3,186 80.3,186 84.2,190.2 83.6,195.9 79,199.1 73.6,197.8 	"/>
</g>
<g id="_x30_">
	<g id="CIRCLE_00000114063999322553296040000005310620500259585440_">
		<circle class="st6" cx="116.2" cy="117.7" r="100"/>
	</g>
	<g id="LINE_00000018199985632320050670000013961176456775438721_">
		<line class="st6" x1="99.7" y1="134.1" x2="52.7" y2="181.2"/>
	</g>
	<g id="LINE_00000110448732819281231680000010966203837467215753_">
		<line class="st6" x1="131.2" y1="109.1" x2="131.2" y2="130.6"/>
	</g>
	<g id="ARC_00000095338158040216019410000011746078144805724858_">
		<path class="st6" d="M131.2,130.6c0,1.3,0.5,2.6,1.5,3.5"/>
	</g>
	<g id="LINE_00000106858468862472367290000006070998315141170304_">
		<line class="st6" x1="101.2" y1="109.1" x2="101.2" y2="130.6"/>
	</g>
	<g id="ARC_00000147943001040928779090000011729382546969459604_">
		<path class="st6" d="M99.7,134.1c0.9-0.9,1.5-2.2,1.5-3.5"/>
	</g>
	<g id="LINE_00000078727576422685865620000016866786813459239606_">
		<line class="st6" x1="131.2" y1="87.7" x2="133" y2="87.7"/>
	</g>
	<g id="ARC_00000087386937119411345370000008025573140444781979_">
		<path class="st6" d="M133,87.7c0.4,0,0.8-0.3,0.9-0.7"/>
	</g>
	<g id="LINE_00000109738872251092134580000003973167560870336674_">
		<line class="st6" x1="101.2" y1="87.7" x2="99.4" y2="87.7"/>
	</g>
	<g id="LINE_00000116938938897876756250000006528148139518035893_">
		<line class="st6" x1="116.2" y1="80.7" x2="134.8" y2="80.7"/>
	</g>
	<g id="LINE_00000038396751331976077140000002875559514972070799_">
		<line class="st6" x1="116.2" y1="80.7" x2="97.6" y2="80.7"/>
	</g>
	<g id="ARC_00000132808372903732449430000009359998092976939403_">
		<path class="st6" d="M97.6,80.7c-0.5,0-1,0.4-1,1c0,0.1,0,0.2,0.1,0.3"/>
	</g>
	<g id="LINE_00000026869371457081867160000017877676831950772881_">
		<line class="st6" x1="96.7" y1="82" x2="98.5" y2="87"/>
	</g>
	<g id="ARC_00000005255577889308619110000007168056197035744661_">
		<path class="st6" d="M98.5,87c0.1,0.4,0.5,0.7,0.9,0.7"/>
	</g>
	<g id="LINE_00000049201435312775953760000018047525817424975795_">
		<line class="st6" x1="133.9" y1="87" x2="135.7" y2="82"/>
	</g>
	<g id="ARC_00000176025865513003840590000015939657647484743091_">
		<path class="st6" d="M135.7,82c0.2-0.5-0.1-1.1-0.6-1.3c-0.1,0-0.2-0.1-0.3-0.1"/>
	</g>
	<g id="CIRCLE_00000078726671888804352330000015302128838149830576_">
		<circle class="st6" cx="116.2" cy="117.7" r="110"/>
	</g>
	<g id="ARC_00000161594215428665547250000005904381151652816806_">
		<path class="st6" d="M52.9,188.5c36.1,32.3,90.6,32.3,126.7,0"/>
	</g>
	<g id="ARC_00000142154998987187007710000004707877802681598898_">
		<path class="st6" d="M179.5,188.5c2.1-1.8,2.2-5,0.4-7.1c-0.1-0.1-0.1-0.1-0.2-0.2"/>
	</g>
	<g id="ARC_00000045608642137161814650000007254057207509108880_">
		<path class="st6" d="M52.7,181.2c-2,2-2,5.1,0,7.1c0.1,0.1,0.1,0.1,0.2,0.2"/>
	</g>
	<g id="LINE_00000116213016386132399580000006383387855638105247_">
		<line class="st6" x1="101.2" y1="109.1" x2="131.2" y2="109.1"/>
	</g>
	<g id="ARC_00000176727658044403947230000004514058973485340553_">
		<path class="st6" d="M65.4,168.4c6,6,15.6,6,21.6,0s6-15.6,0-21.6"/>
	</g>
	<g id="CIRCLE_00000074414309926983337770000013536598750352984992_">
		<circle class="st7" cx="77.8" cy="192.3" r="6.6"/>
	</g>
	<g id="CIRCLE_00000165932124444420920030000016009887673415513751_">
		<circle class="st7" cx="107.7" cy="139.5" r="4.4"/>
	</g>
	<g id="CIRCLE_00000138537967098756565360000004919532511996488097_">
		<circle class="st7" cx="116.1" cy="169" r="9"/>
	</g>
	<g id="ARC_00000056400037845536270230000009188366706716951208_">
		<path class="st7" d="M167.9,169.4c-7.2,1.2-12,8-10.8,15.2c1.1,6.5,6.9,11.2,13.5,11"/>
	</g>
	<g id="CIRCLE_00000026153708874081606320000008959925094177214113_">
		<circle class="st7" cx="134.4" cy="151.3" r="5.9"/>
	</g>
	<g id="CIRCLE_00000074434020051899260660000004646050094134528932_">
		<circle class="st7" cx="124.1" cy="196.4" r="7.3"/>
	</g>
	<g id="LINE_00000071542916886375840870000009408270937066431124_">
		<line class="st6" x1="132.7" y1="134.1" x2="179.7" y2="181.2"/>
	</g>
	<g id="LINE_00000178883320327605993180000002545089969663476654_">
		<line class="st6" x1="131.2" y1="109.1" x2="131.2" y2="87.7"/>
	</g>
	<g id="LINE_00000008130190721997009450000016245720023539294129_">
		<line class="st6" x1="101.2" y1="109.1" x2="101.2" y2="87.7"/>
	</g>
</g>
<g>
	<path class="st8" d="M113.1,49.6c0.5,3.3,0.2,6.4-0.8,9.2s-2.7,5.1-5.1,6.9c-2.3,1.8-5.1,3-8.2,3.4c-3.1,0.5-6,0.2-8.7-0.9
		c-2.7-1-5-2.7-6.8-5c-1.8-2.3-2.9-5.1-3.4-8.3c-0.5-3.3-0.2-6.5,0.8-9.3c1-2.9,2.7-5.2,5.1-7.1c2.3-1.8,5.2-3,8.4-3.5
		c3.1-0.5,6.1-0.2,8.7,0.9c2.7,1,4.9,2.7,6.6,5.1C111.5,43.4,112.6,46.3,113.1,49.6z M102.7,51.4c-0.4-2.7-1.2-4.8-2.5-6.2
		s-2.8-2-4.6-1.7c-2,0.3-3.4,1.3-4.3,2.9c-0.9,1.7-1.1,3.9-0.7,6.6c0.4,2.7,1.2,4.7,2.6,6c1.3,1.3,2.9,1.9,4.8,1.6
		c1.1-0.2,2.1-0.7,2.9-1.5c0.8-0.8,1.4-1.9,1.7-3.2C102.9,54.6,102.9,53.1,102.7,51.4z"/>
</g>
<g>
	<path class="st8" d="M155.9,57c-0.7,3.3-2,6.1-3.9,8.3c-1.9,2.2-4.3,3.8-7.1,4.6c-2.9,0.8-6,0.9-9.3,0.2l-13.8-2.9l6.8-32.5
		l13.5,2.8C153.5,39.9,158.1,46.4,155.9,57z M145.5,54.9c0.3-1.6,0.3-3.1-0.1-4.5s-1.1-2.6-2.1-3.5s-2.4-1.6-4-1.9l-2.5-0.5
		l-3.6,17.2l2.7,0.6c2.3,0.5,4.4,0.1,6.1-1.2C143.8,59.6,144.9,57.6,145.5,54.9z"/>
</g>
<g>
	<path class="st8" d="M156,76.7l15.9-29.1l18.1,9.9l-3.8,6.9l-9.4-5.1l-2.3,4.2l8.8,4.8l-3.8,6.9l-8.8-4.8l-2.3,4.3l10,5.5l-3.8,6.9
		L156,76.7z"/>
</g>
<g>
	<path class="st8" d="M77.8,71.6c-2,2.1-4.6,4-7.8,5.7c-3.1,1.6-6.2,2.4-9.1,2.4c-2.9,0-5.5-0.8-7.9-2.4c-2.3-1.6-4.3-3.8-5.8-6.7
		c-1.6-3.1-2.4-6.2-2.3-9.3c0.1-3.1,1-6,2.8-8.6s4.3-4.7,7.4-6.4c2.6-1.3,5.2-2.3,7.9-2.9l4.2,8.2c-1.1-0.1-2.3,0.1-3.5,0.4
		c-1.3,0.3-2.5,0.8-3.7,1.4c-2.4,1.2-4,2.9-4.6,5c-0.7,2.1-0.4,4.3,0.8,6.7c1.2,2.4,2.9,3.9,5,4.5s4.3,0.4,6.6-0.8
		c2.2-1.1,4-2.8,5.7-5L77.8,71.6z"/>
</g>
</svg>
